<?xml version="1.0" encoding="UTF-8" standalone="no"?>
<svg
   xmlns:dc="http://purl.org/dc/elements/1.1/"
   xmlns:cc="http://creativecommons.org/ns#"
   xmlns:rdf="http://www.w3.org/1999/02/22-rdf-syntax-ns#"
   xmlns:svg="http://www.w3.org/2000/svg"
   xmlns="http://www.w3.org/2000/svg"
   xmlns:xlink="http://www.w3.org/1999/xlink"
   xmlns:sodipodi="http://sodipodi.sourceforge.net/DTD/sodipodi-0.dtd"
   xmlns:inkscape="http://www.inkscape.org/namespaces/inkscape"
   width="1027"
   height="123"
   viewBox="0 0 1027 123"
   version="1.1"
   id="svg2418"
   sodipodi:docname="cards.svg"
   inkscape:version="0.92.1 r">
  <metadata
     id="metadata2422">
    <rdf:RDF>
      <cc:Work
         rdf:about="">
        <dc:format>image/svg+xml</dc:format>
        <dc:type
           rdf:resource="http://purl.org/dc/dcmitype/StillImage" />
        <dc:title />
      </cc:Work>
    </rdf:RDF>
  </metadata>
  <sodipodi:namedview
     pagecolor="#ffffff"
     bordercolor="#666666"
     borderopacity="1"
     objecttolerance="10"
     gridtolerance="10"
     guidetolerance="10"
     inkscape:pageopacity="0"
     inkscape:pageshadow="2"
     inkscape:window-width="1080"
     inkscape:window-height="1895"
     id="namedview2420"
     showgrid="false"
     showguides="false"
     inkscape:zoom="1.2847724"
     inkscape:cx="721.28022"
     inkscape:cy="307.5"
     inkscape:window-x="1366"
     inkscape:window-y="0"
     inkscape:window-maximized="1"
     inkscape:current-layer="svg2418">
    <inkscape:grid
       type="xygrid"
       id="grid2424" />
  </sodipodi:namedview>
  <defs
     id="defs1395">
    <path
       id="cf"
       d="m 78.25,117.25 c 0,2.762 -2.238,5 -5,5 H 5.75 c -2.761,0 -5,-2.238 -5,-5 V 5.75 c 0,-2.762 2.239,-5 5,-5 h 67.5 c 2.762,0 5,2.238 5,5 z"
       inkscape:connector-curvature="0"
       style="fill:#ffffff;stroke:#000000;stroke-width:1.5" />
    <path
       id="cl"
       d="m 2.159,-0.864 c 0,0 2.375,-1.9 2.375,-4.534 C 4.534,-6.94 3.165,-9.5 0,-9.5 c -3.165,0 -4.534,2.561 -4.534,4.102 0,2.634 2.375,4.534 2.375,4.534 -2.638,-2.055 -7.341,-0.652 -7.341,3.455 0,2.056 1.68,4.318 4.318,4.318 3.165,0 4.534,-3.455 4.534,-3.455 0,0 0.402,3.938 -1.943,6.046 H 2.591 C 0.246,7.393 0.648,3.454 0.648,3.454 c 0,0 1.369,3.455 4.534,3.455 2.639,0 4.318,-2.263 4.318,-4.318 0,-4.107 -4.703,-5.51 -7.341,-3.455 z"
       inkscape:connector-curvature="0"
       style="fill:#000000" />
    <path
       id="cs"
       d="m 1.137,-0.455 c 0,0 1.25,-1 1.25,-2.386 C 2.387,-3.653 1.665,-5 0,-5 c -1.666,0 -2.386,1.348 -2.386,2.159 0,1.386 1.25,2.386 1.25,2.386 C -2.525,-1.536 -5,-0.798 -5,1.363 c 0,1.082 0.884,2.273 2.273,2.273 1.666,0 2.386,-1.818 2.386,-1.818 0,0 0.211,2.072 -1.023,3.182 H 1.363 C 0.129,3.891 0.341,1.818 0.341,1.818 c 0,0 0.721,1.818 2.387,1.818 C 4.117,3.636 5,2.445 5,1.363 5,-0.798 2.524,-1.536 1.137,-0.455 Z"
       inkscape:connector-curvature="0"
       style="fill:#000000" />
    <path
       id="dl"
       d="M 3.529,-5.011 C 1.412,-7.875 0,-10.5 0,-10.5 c 0,0 -1.412,2.625 -3.529,5.489 C -5.647,-2.148 -8,0 -8,0 -8,0 -5.647,2.147 -3.529,5.012 -1.412,7.875 0,10.5 0,10.5 0,10.5 1.412,7.875 3.529,5.012 5.647,2.147 8,0 8,0 8,0 5.647,-2.148 3.529,-5.011 Z"
       inkscape:connector-curvature="0"
       style="fill:#df0000" />
    <path
       id="ds"
       d="M 1.985,-2.625 C 0.794,-4.125 0,-5.5 0,-5.5 c 0,0 -0.794,1.375 -1.985,2.875 C -3.176,-1.125 -4.5,0 -4.5,0 c 0,0 1.324,1.125 2.515,2.625 C -0.794,4.125 0,5.5 0,5.5 0,5.5 0.794,4.125 1.985,2.625 3.176,1.125 4.5,0 4.5,0 4.5,0 3.177,-1.125 1.985,-2.625 Z"
       inkscape:connector-curvature="0"
       style="fill:#df0000" />
    <path
       id="hl"
       d="M 3.676,-9 C 0.433,-9 0,-5.523 0,-5.523 0,-5.523 -0.433,-9 -3.676,-9 -5.946,-9 -8,-7.441 -8,-4.5 -8,-0.614 -0.809,6.189 0,9 0.813,6.186 8,-0.614 8,-4.5 8,-7.441 5.946,-9 3.676,-9 Z"
       inkscape:connector-curvature="0"
       style="fill:#df0000" />
    <path
       id="hs"
       d="M 2.067,-5 C 0.243,-5 0,-3.068 0,-3.068 0,-3.068 -0.243,-5 -2.067,-5 -3.344,-5 -4.5,-4.134 -4.5,-2.5 -4.5,-0.341 -0.455,3.438 0,5 0.458,3.437 4.5,-0.341 4.5,-2.5 4.5,-4.134 3.345,-5 2.067,-5 Z"
       inkscape:connector-curvature="0"
       style="fill:#df0000" />
    <path
       id="sl"
       d="M 7.989,3.103 C 7.747,-0.954 0.242,-8.59 0,-10.5 c -0.242,1.909 -7.747,9.545 -7.989,13.603 -0.169,2.868 1.695,4.057 3.39,4.057 2.421,0 3.147,-2.625 3.389,-3.341 0,-0.239 0.484,-0.239 0.484,0 0.242,0.716 -1.603,6.682 -2.179,6.682 h 5.811 c -0.576,0 -2.421,-5.966 -2.179,-6.682 0,-0.239 0.485,-0.239 0.485,0 C 1.454,4.535 2.18,7.16 4.601,7.16 6.295,7.159 8.158,5.971 7.989,3.103 Z"
       inkscape:connector-curvature="0"
       style="fill:#000000" />
    <path
       id="ss"
       d="M 4.494,1.625 C 4.357,-0.5 0.136,-4.5 0,-5.5 c -0.136,1 -4.358,5 -4.494,7.125 -0.095,1.503 0.954,2.125 1.907,2.125 1.362,0 1.771,-1.375 1.907,-1.75 0,-0.125 0.272,-0.125 0.272,0 0.136,0.375 -0.902,3.5 -1.226,3.5 H 1.634 C 1.311,5.5 0.273,2.375 0.408,2 c 0,-0.125 0.273,-0.125 0.273,0 0.136,0.375 0.544,1.75 1.906,1.75 0.954,0 2.002,-0.622 1.907,-2.125 z"
       inkscape:connector-curvature="0"
       style="fill:#000000" />
    <g
       id="it1"
       style="fill:none;stroke-width:1.5">
      <line
         x1="3"
         y1="17.75"
         x2="6.5"
         y2="17.75"
         id="line1253" />
      <line
         x1="12"
         y1="17.75"
         x2="8.5"
         y2="17.75"
         id="line1255" />
      <polyline
         points="4.5,17.75 7.5,4.5 10.5,17.75 "
         id="polyline1257" />
      <line
         x1="5.25"
         y1="14.5"
         x2="9.75"
         y2="14.5"
         id="line1259" />
    </g>
    <g
       id="it2"
       style="fill:none;stroke-width:1.5">
      <path
         d="m 90.25,15.5 v 2.25 h -7.5 V 16.5 c 0,-3.25 7.5,-3.75 7.5,-7.75 0,-2.75 -1.25,-3.5 -3.75,-3.5 -2.5,0 -3.75,1.5 -3.75,3"
         id="path1262"
         inkscape:connector-curvature="0" />
    </g>
    <g
       id="it3"
       style="fill:none;stroke-width:1.5">
      <path
         d="M 161.75,7.5 V 5.25 h 6.75 V 6 l -5,5.25 c 0,0 1,-0.5 2.5,-0.5 1.5,0 3.25,1.25 3.25,3.25 0,2 -1.5,3.75 -3.75,3.75 -1.75,0 -3.25,-1 -3.75,-2.5"
         id="path1265"
         inkscape:connector-curvature="0" />
    </g>
    <g
       id="it4"
       style="fill:none;stroke-width:1.5">
      <line
         x1="245"
         y1="17.75"
         x2="249"
         y2="17.75"
         id="line1268" />
      <polyline
         points="247,17.75 247,5.25 246.25,5.25 240.75,14.25 240.75,14.75 249,14.75 "
         id="polyline1270" />
    </g>
    <g
       id="it5"
       style="fill:none;stroke-width:1.5">
      <path
         d="m 327.25,5.25 h -7 v 5.25 l 0.7,0.25 c 0,0 0.47,-1.5 2.8,-1.5 2.33,0 3.27,2.25 3.27,4.5 0,2.25 -1.4,4 -3.5,4 -2.1,0 -3.03,-1.5 -3.27,-2.25"
         id="path1273"
         inkscape:connector-curvature="0" />
    </g>
    <g
       id="it6"
       style="fill:none;stroke-width:1.5">
      <circle
         cx="402.5"
         cy="14"
         r="3.25"
         id="circle1276" />
      <path
         d="M 399.25,14 V 8.5 c 0,0 -0.25,-3.25 3.23,-3.25 1.08,0 2.8,0.5 3.02,2.25"
         id="path1278"
         inkscape:connector-curvature="0" />
    </g>
    <g
       id="it7"
       style="fill:none;stroke-width:1.5">
      <path
         d="M 477.75,7.5 V 5.25 h 6.5 L 485,6 c -2.25,2.75 -4.25,7.75 -4.25,12.5"
         id="path1281"
         inkscape:connector-curvature="0" />
    </g>
    <g
       id="it8"
       style="fill:none;stroke-width:1.5">
      <circle
         cx="560.5"
         cy="14.25"
         r="3.5"
         id="circle1284" />
      <circle
         cx="560.5"
         cy="7.75"
         r="3"
         id="circle1286" />
    </g>
    <g
       id="it9"
       style="fill:none;stroke-width:1.5">
      <path
         d="m 642.75,9 v 5.5 c 0,0 0.25,3.25 -3.23,3.25 -1.08,0 -2.8,-0.5 -3.02,-2.25"
         id="path1289"
         inkscape:connector-curvature="0" />
      <circle
         cx="639.5"
         cy="9"
         r="3.25"
         id="circle1291" />
    </g>
    <g
       id="it10"
       style="fill:none;stroke-width:1.5">
      <path
         d="m 722.25,15.6 c 0,1.19 -1.01,2.15 -2.25,2.15 v 0 c -1.24,0 -2.25,-0.96 -2.25,-2.15 V 7.4 c 0,-1.19 1.01,-2.15 2.25,-2.15 v 0 c 1.24,0 2.25,0.96 2.25,2.15 z"
         id="path1294"
         inkscape:connector-curvature="0" />
      <line
         x1="714.75"
         y1="4.75"
         x2="714.75"
         y2="18.25"
         id="line1296" />
    </g>
    <g
       id="itj"
       style="fill:none;stroke-width:1.5">
      <path
         d="M 793.75,14.75 V 15 c 0,0 -0.25,2.75 3,2.75 3.25,0 3,-2.75 3,-2.75 V 6"
         id="path1299"
         inkscape:connector-curvature="0" />
      <line
         x1="802"
         y1="5.25"
         x2="797.5"
         y2="5.25"
         id="line1301" />
    </g>
    <g
       id="itq"
       style="fill:none;stroke-width:1.5">
      <path
         d="m 872,12.5 c 6,0 5,5 9,5"
         id="path1304"
         inkscape:connector-curvature="0" />
      <path
         d="m 879.25,11.5 c 0,-3.45 0,-6.25 -2.75,-6.25 -2.75,0 -2.75,2.8 -2.75,6.25 0,3.45 0,6.25 2.75,6.25 2.75,0 2.75,-2.8 2.75,-6.25 z"
         id="path1306"
         inkscape:connector-curvature="0" />
    </g>
    <g
       id="itk"
       style="fill:none;stroke-width:1.5">
      <line
         x1="951"
         y1="5.25"
         x2="955"
         y2="5.25"
         id="line1309" />
      <line
         x1="956"
         y1="5.25"
         x2="960"
         y2="5.25"
         id="line1311" />
      <line
         x1="951"
         y1="17.75"
         x2="955"
         y2="17.75"
         id="line1313" />
      <line
         x1="956"
         y1="17.75"
         x2="960"
         y2="17.75"
         id="line1315" />
      <line
         x1="958.75"
         y1="5"
         x2="952.75"
         y2="13.25"
         id="line1317" />
      <line
         x1="958.75"
         y1="18"
         x2="955"
         y2="10.25"
         id="line1319" />
      <line
         x1="952.75"
         y1="4.5"
         x2="952.75"
         y2="18.5"
         id="line1321" />
    </g>
    <g
       id="ib1"
       style="fill:none;stroke-width:1.5">
      <line
         x1="73.75"
         y1="108.5"
         x2="69.25"
         y2="108.5"
         id="line1324" />
      <line
         x1="76"
         y1="105.25"
         x2="72.5"
         y2="105.25"
         id="line1326" />
      <line
         x1="67"
         y1="105.25"
         x2="70.5"
         y2="105.25"
         id="line1328" />
      <polyline
         points="74.5,105.25 71.5,118.5 68.5,105.25 "
         id="polyline1330" />
    </g>
    <g
       id="ib2"
       style="fill:none;stroke-width:1.5">
      <path
         d="m 146.75,107.5 v -2.25 h 7.5 v 1.25 c 0,3.25 -7.5,3.75 -7.5,7.75 0,2.75 1.25,3.5 3.75,3.5 2.5,0 3.75,-1.5 3.75,-3"
         id="path1333"
         inkscape:connector-curvature="0" />
    </g>
    <g
       id="ib3"
       style="fill:none;stroke-width:1.5">
      <path
         d="m 233.25,115.5 v 2.25 H 226.5 V 117 l 5,-5.25 c 0,0 -1,0.5 -2.5,0.5 -1.5,0 -3.25,-1.25 -3.25,-3.25 0,-2 1.5,-3.75 3.75,-3.75 1.75,0 3.25,1 3.75,2.5"
         id="path1336"
         inkscape:connector-curvature="0" />
    </g>
    <g
       id="ib4"
       style="fill:none;stroke-width:1.5">
      <polyline
         points="306,105.25 306,117.75 306.75,117.75 312.25,108.75 312.25,108.25 304,108.25 "
         id="polyline1339" />
      <line
         x1="308"
         y1="105.25"
         x2="304"
         y2="105.25"
         id="line1341" />
    </g>
    <g
       id="ib5"
       style="fill:none;stroke-width:1.5">
      <path
         d="m 383.75,117.75 h 7 v -5.25 l -0.7,-0.25 c 0,0 -0.47,1.5 -2.8,1.5 -2.33,0 -3.27,-2.25 -3.27,-4.5 0,-2.25 1.4,-4 3.5,-4 2.1,0 3.03,1.5 3.27,2.25"
         id="path1344"
         inkscape:connector-curvature="0" />
    </g>
    <g
       id="ib6"
       style="fill:none;stroke-width:1.5">
      <path
         d="m 469.75,109 v 5.5 c 0,0 0.25,3.25 -3.23,3.25 -1.08,0 -2.8,-0.5 -3.02,-2.25"
         id="path1347"
         inkscape:connector-curvature="0" />
      <circle
         cx="466.5"
         cy="109"
         r="3.25"
         id="circle1349" />
    </g>
    <g
       id="ib7"
       style="fill:none;stroke-width:1.5">
      <path
         d="m 549.25,115.5 v 2.25 h -6.5 L 542,117 c 2.25,-2.75 4.25,-7.75 4.25,-12.5"
         id="path1352"
         inkscape:connector-curvature="0" />
    </g>
    <g
       id="ib8"
       style="fill:none;stroke-width:1.5">
      <circle
         cx="624.5"
         cy="115.25"
         r="3"
         id="circle1355" />
      <circle
         cx="624.5"
         cy="108.75"
         r="3.5"
         id="circle1357" />
    </g>
    <g
       id="ib9"
       style="fill:none;stroke-width:1.5">
      <circle
         cx="703.5"
         cy="114"
         r="3.25"
         id="circle1360" />
      <path
         d="m 700.25,114 v -5.5 c 0,0 -0.25,-3.25 3.23,-3.25 1.08,0 2.8,0.5 3.02,2.25"
         id="path1362"
         inkscape:connector-curvature="0" />
    </g>
    <g
       id="ib10"
       style="fill:none;stroke-width:1.5">
      <line
         x1="786.25"
         y1="118.25"
         x2="786.25"
         y2="104.75"
         id="line1365" />
      <path
         d="m 778.75,107.4 c 0,-1.19 1.01,-2.15 2.25,-2.15 v 0 c 1.24,0 2.25,0.96 2.25,2.15 v 8.2 c 0,1.19 -1.01,2.15 -2.25,2.15 v 0 c -1.24,0 -2.25,-0.96 -2.25,-2.15 z"
         id="path1367"
         inkscape:connector-curvature="0" />
    </g>
    <g
       id="ibj"
       style="fill:none;stroke-width:1.5">
      <path
         d="M 865.25,108.25 V 108 c 0,0 0.25,-2.75 -3,-2.75 -3.25,0 -3,2.75 -3,2.75 v 9"
         id="path1370"
         inkscape:connector-curvature="0" />
      <line
         x1="857"
         y1="117.75"
         x2="861.5"
         y2="117.75"
         id="line1372" />
    </g>
    <g
       id="ibq"
       style="fill:none;stroke-width:1.5">
      <path
         d="m 937.75,111.5 c 0,3.45 0,6.25 2.75,6.25 2.75,0 2.75,-2.8 2.75,-6.25 0,-3.45 0,-6.25 -2.75,-6.25 -2.75,0 -2.75,2.8 -2.75,6.25 z"
         id="path1375"
         inkscape:connector-curvature="0" />
      <path
         d="m 945,110.5 c -6,0 -5,-5 -9,-5"
         id="path1377"
         inkscape:connector-curvature="0" />
    </g>
    <g
       id="ibk"
       style="fill:none;stroke-width:1.5">
      <line
         x1="1024"
         y1="117.75"
         x2="1020"
         y2="117.75"
         id="line1380" />
      <line
         x1="1019"
         y1="117.75"
         x2="1015"
         y2="117.75"
         id="line1382" />
      <line
         x1="1024"
         y1="105.25"
         x2="1020"
         y2="105.25"
         id="line1384" />
      <line
         x1="1022.25"
         y1="118.5"
         x2="1022.25"
         y2="104.5"
         id="line1386" />
      <line
         x1="1016.25"
         y1="118"
         x2="1022.25"
         y2="109.75"
         id="line1388" />
      <line
         x1="1016.25"
         y1="105"
         x2="1020"
         y2="112.75"
         id="line1390" />
      <line
         x1="1019"
         y1="105.25"
         x2="1015"
         y2="105.25"
         id="line1392" />
    </g>
  </defs>
  <g
     id="joker_black"
     transform="translate(0,-492)">
    <use
       x="0"
       y="492"
       xlink:href="#cf"
       id="use2409"
       width="100%"
       height="100%" />
  </g>
  <g
     id="joker_red"
     transform="translate(0,-492)">
    <use
       x="79"
       y="492"
       xlink:href="#cf"
       id="use2412"
       width="100%"
       height="100%" />
  </g>
  <g
     id="back"
     transform="translate(0,-492)">
    <use
       x="158"
       y="492"
       xlink:href="#cf"
       id="use2415"
       width="100%"
       height="100%" />
  </g>
  <g
     id="joker_black-3"
     transform="translate(237,-492)">
    <use
       x="0"
       y="492"
       xlink:href="#cf"
       id="use2409-6"
       width="100%"
       height="100%" />
  </g>
  <g
     id="joker_red-7"
     transform="translate(237,-492)">
    <use
       x="79"
       y="492"
       xlink:href="#cf"
       id="use2412-5"
       width="100%"
       height="100%" />
  </g>
  <g
     id="back-3"
     transform="translate(237,-492)">
    <use
       x="158"
       y="492"
       xlink:href="#cf"
       id="use2415-5"
       width="100%"
       height="100%" />
  </g>
  <g
     id="joker_black-6"
     transform="translate(474,-492)">
    <use
       x="0"
       y="492"
       xlink:href="#cf"
       id="use2409-2"
       width="100%"
       height="100%" />
  </g>
  <g
     id="joker_red-9"
     transform="translate(474,-492)">
    <use
       x="79"
       y="492"
       xlink:href="#cf"
       id="use2412-1"
       width="100%"
       height="100%" />
  </g>
  <g
     id="back-2"
     transform="translate(474,-492)">
    <use
       x="158"
       y="492"
       xlink:href="#cf"
       id="use2415-7"
       width="100%"
       height="100%" />
  </g>
  <g
     id="joker_black-0"
     transform="translate(711,-492)">
    <use
       x="0"
       y="492"
       xlink:href="#cf"
       id="use2409-9"
       width="100%"
       height="100%" />
  </g>
  <g
     id="joker_red-3"
     transform="translate(711,-492)">
    <use
       x="79"
       y="492"
       xlink:href="#cf"
       id="use2412-6"
       width="100%"
       height="100%" />
  </g>
  <g
     id="back-0"
     transform="translate(711,-492)">
    <use
       x="158"
       y="492"
       xlink:href="#cf"
       id="use2415-6"
       width="100%"
       height="100%" />
  </g>
  <g
     aria-label="1"
     transform="translate(5.4484359,-3.1133919)"
     style="font-style:normal;font-variant:normal;font-weight:normal;font-stretch:normal;font-size:64px;line-height:125%;font-family:'ROCKY AOE';-inkscape-font-specification:'ROCKY AOE';letter-spacing:0px;word-spacing:0px;fill:#000000;fill-opacity:1;stroke:none;stroke-width:1px;stroke-linecap:butt;stroke-linejoin:miter;stroke-opacity:1"
     id="flowRoot6208">
    <path
       d="m 43.564453,47.785295 q -0.71875,3.0625 -0.71875,6.78125 0,2.71875 0.53125,8.21875 0.5625,5.5 0.5625,8.25 0,3.625 -0.65625,6.59375 -0.3125,0.28125 -0.8125,0.28125 -0.21875,0 -0.625,-0.0625 -0.40625,-0.0625 -0.59375,-0.0625 -0.8125,0 -0.8125,1.125 -0.4375,2.21875 -0.875,4.4375 -0.5625,2.59375 -1.75,3.5625 -0.96875,-1.0625 -1.0625,-3.96875 -0.125,-2.8125 -1.375,-4.03125 -0.1875,2.46875 -1.71875,2.46875 -0.375,0 -0.8125,-0.21875 -1.5,-2.875 -1.5,-6.84375 0,-1.5625 0.3125,-4.71875 0.3125,-3.1875 0.3125,-4.78125 0,-2.9375 -0.78125,-5.21875 -0.78125,0.25 -2.21875,1.90625 -1.21875,1.40625 -2.5625,1.3125 -3.15625,-3.25 -5.0625,-9.375 -0.125,-0.3125 -0.125,-0.625 0,-0.9375 1.3125,-1.9375 1.53125,-1.09375 1.71875,-1.625 1.15625,-0.34375 3.03125,-1.625 2.03125,-1.375 3.03125,-1.78125 0.75,-0.5 1.8125,-0.5 0.125,0 2.875,0.40625 1.78125,0.28125 2.90625,-0.28125 0.65625,-0.21875 1.34375,-0.21875 2.78125,0 4.3125,2.53125 z"
       style=""
       id="path180" />
  </g>
  <g
     aria-label="2"
     transform="translate(84.950467,-5.3500087)"
     style="font-style:normal;font-variant:normal;font-weight:normal;font-stretch:normal;font-size:64px;line-height:125%;font-family:'ROCKY AOE';-inkscape-font-specification:'ROCKY AOE';letter-spacing:0px;word-spacing:0px;fill:#000000;fill-opacity:1;stroke:none;stroke-width:1px;stroke-linecap:butt;stroke-linejoin:miter;stroke-opacity:1"
     id="flowRoot6208-1">
    <path
       d="m 48.345703,73.285295 q 0.125,4.3125 -3.40625,9.4375 -0.90625,-0.34375 -1.65625,-1.21875 -0.625,-0.8125 -1.28125,-1.59375 -0.78125,1.25 -1.03125,5.96875 -0.1875,3.71875 -2.28125,4.375 -0.34375,-0.78125 -1.375,-4.53125 -0.75,-2.8125 -1.9375,-4.15625 -0.53125,0.28125 -1,0.28125 -1.34375,0 -2.03125,-3.21875 -0.46875,0.3125 -1.59375,1.59375 -0.9375,1.0625 -1.8125,1.34375 -1.375,-2.1875 -4.4375,-2.625 -3.53125,-0.53125 -4.9375,-1.75 0.15625,-5.375 1.65625,-10.34375 2.90625,-2.09375 5.78125,-4.1875 3.28125,-2.625 4.1875,-5.65625 -0.5625,-0.1875 -1.1875,-0.1875 -1.875,0 -5.9375,2.03125 -0.9375,0.46875 -1.8125,2.65625 -0.8125,2.0625 -2,2.40625 -1.34375,-2.875 -3.40625,-8.875 0,-1.90625 -0.03125,-3.8125 0.09375,-2.28125 2.1875,-2.53125 6.65625,-2.375 7.875,-2.75 4.5625,-1.375 8.125,-1.375 1.8125,0 3.5,0.34375 3.21875,0.59375 4.90625,3.84375 0.71875,1.375 2,6.09375 -0.4375,2.84375 -3.375,6.46875 -3.75,4.59375 -4.5,6.09375 0.5,0.09375 1.0625,0.09375 1.03125,0 2.96875,-0.34375 1.9375,-0.34375 2.875,-0.34375 1.6875,0 3.03125,0.8125 0.53125,0.90625 0.59375,2.71875 0.03125,2.125 0.28125,2.9375 z"
       style=""
       id="path183" />
  </g>
  <g
     aria-label="3"
     transform="translate(167.45536,-3.0149645)"
     style="font-style:normal;font-variant:normal;font-weight:normal;font-stretch:normal;font-size:64px;line-height:125%;font-family:'ROCKY AOE';-inkscape-font-specification:'ROCKY AOE';letter-spacing:0px;word-spacing:0px;fill:#000000;fill-opacity:1;stroke:none;stroke-width:1px;stroke-linecap:butt;stroke-linejoin:miter;stroke-opacity:1"
     id="flowRoot6208-3">
    <path
       d="m 46.626953,71.004045 q -1.65625,3.1875 -4.09375,11.5 -2.1875,7.46875 -4.375,10.8125 -1.3125,-2.1875 -1.9375,-6.65625 -0.65625,-4.8125 -1.5,-6.59375 0.15625,0.5 0.15625,0.90625 0,1.21875 -1.40625,2.59375 0.1875,0 0.1875,-0.09375 -0.6875,-0.125 -1.375,-0.28125 -0.78125,-0.25 -0.96875,-0.875 -0.71875,2.71875 -2.625,8 -1.9375,-1.09375 -2.125,-5.25 -0.25,-4.78125 -1.5,-6.375 -0.09375,0.78125 -0.875,2.0625 -2.125,0.15625 -2.59375,-1.90625 -0.5625,-2.46875 -1.78125,-2.96875 0.40625,-1.40625 1.15625,-8.875 0.78125,-0.25 1.625,-0.25 1.28125,0 3.84375,0.90625 2.59375,0.90625 3.96875,0.90625 0.9375,0 1.78125,-0.3125 -1.8125,-1.8125 -4.53125,-1.8125 -0.4375,0 -0.8125,0.0625 -1.9375,-1.0625 -1.9375,-3.125 0,-0.84375 0.46875,-2.78125 0.4375,-1.8125 0.375,-2.65625 0.71875,-0.28125 2.9375,-0.5625 1.6875,-0.21875 2.625,-1 -1.03125,-0.53125 -2,-0.53125 -1.6875,0 -4.0625,2.03125 -2.46875,2.15625 -3.59375,2.28125 -2.75,-7.34375 -3.125,-12.09375 4.8125,-2.28125 11,-2.28125 3.90625,0 8.40625,0.9375 6.5,3.03125 6.25,8.09375 -0.5,0.90625 -1.4375,4 -0.78125,2.5625 -1.875,3.90625 4.9375,1.25 5.75,8.28125 z m -15.6875,-3.03125 -1.09375,-0.09375 0.09375,-0.09375 z"
       style=""
       id="path186" />
  </g>
  <g
     aria-label="4"
     transform="translate(244.51181,-3.0149645)"
     style="font-style:normal;font-variant:normal;font-weight:normal;font-stretch:normal;font-size:64px;line-height:125%;font-family:'ROCKY AOE';-inkscape-font-specification:'ROCKY AOE';letter-spacing:0px;word-spacing:0px;fill:#000000;fill-opacity:1;stroke:none;stroke-width:1px;stroke-linecap:butt;stroke-linejoin:miter;stroke-opacity:1"
     id="flowRoot6208-4">
    <path
       d="m 47.595703,58.160295 q -0.28125,0.75 -0.28125,1.71875 0,0.4375 0.0625,1.34375 0.09375,0.90625 0.09375,1.34375 0,1.3125 -0.5625,2.21875 -0.15625,0.46875 -0.3125,2.09375 -0.15625,1.3125 -0.65625,1.90625 -1.46875,0.1875 -2.4375,-0.375 -0.3125,1.0625 -0.3125,2.59375 0,0.6875 0.0625,2.03125 0.09375,1.3125 0.09375,1.96875 0,3.40625 -2.09375,4.8125 -0.21875,-0.0625 -0.40625,-0.0625 -0.34375,0 -0.875,0.28125 -0.5,0.25 -0.75,0.28125 0,2.34375 -1.46875,4.78125 -0.46875,-0.09375 -0.9375,-0.1875 -0.5625,-0.15625 -0.5625,-0.59375 0,-0.125 0.03125,-0.3125 -0.28125,-0.09375 -0.4375,-0.09375 -0.15625,0 -0.15625,0.15625 0,0.09375 0.0625,0.34375 0.0625,0.25 0.0625,0.40625 0,0.34375 -0.3125,0.46875 -0.46875,0.78125 -0.59375,2.09375 -0.09375,1.125 -0.1875,2.28125 -0.34375,0.34375 -1.15625,1.8125 -0.65625,1.1875 -1.375,1.5 -1.75,-0.875 -1.375,-3.5 0.4375,-3.1875 -0.09375,-4.09375 0.09375,-2.59375 0.1875,-5.15625 0.125,-3.09375 0.6875,-4.78125 -0.125,-0.75 -0.125,-2 v -1 q 0,-2.5 -0.75,-3.65625 -0.78125,0.5625 -2.625,1.46875 -0.8125,0 -2.125,-0.84375 -1.3125,-0.875 -2.03125,-0.875 -0.5,0 -1,0.25 -0.4375,0.40625 -0.71875,2.03125 -0.25,1.40625 -1.25,1.78125 -1.53125,0.625 -2.21875,-0.78125 -1.28125,-10.25 -1.1875,-14.34375 3.1875,-3.375 7.625,-9.53125 0.5625,-0.65625 1.15625,-1.28125 0.75,-0.75 1.53125,-0.75 0.375,0 0.8125,0.15625 1.1875,-0.53125 3.34375,-0.625 2.5625,-0.09375 3.46875,-0.34375 1.1875,0.40625 3.0625,0.46875 1.59375,0.0625 3.1875,0.125 0.625,0.1875 1.375,0.96875 -0.5,2.75 0.375,6.8125 -0.1875,0.4375 -0.1875,3.03125 l 2.9375,0.3125 q 1.4375,0.71875 1.34375,1.34375 z m -15.9375,-3.0625 -1.90625,2.0625 h 1.71875 z"
       style=""
       id="path189" />
  </g>
  <g
     aria-label="5"
     transform="translate(321.56825,-0.67992055)"
     style="font-style:normal;font-variant:normal;font-weight:normal;font-stretch:normal;font-size:64px;line-height:125%;font-family:'ROCKY AOE';-inkscape-font-specification:'ROCKY AOE';letter-spacing:0px;word-spacing:0px;fill:#000000;fill-opacity:1;stroke:none;stroke-width:1px;stroke-linecap:butt;stroke-linejoin:miter;stroke-opacity:1"
     id="flowRoot6208-8">
    <path
       d="m 47.658203,66.754045 q 0.09375,0.625 0.09375,1.25 0,2.75 -2.53125,7.15625 -2.6875,4.65625 -2.9375,7.21875 -0.15625,0.0625 -0.34375,0.0625 -0.53125,0 -1.34375,-0.625 -0.8125,-0.625 -1.0625,-0.625 -0.46875,0 -0.5625,1.46875 -0.78125,1.1875 -1.25,5.75 -0.34375,3.625 -2.5625,4.375 -1.46875,-1.9375 -1.46875,-5.125 0,-0.53125 0.03125,-1.59375 0.0625,-1.03125 0.0625,-1.5625 0,-2.78125 -1.15625,-4.46875 -0.15625,0.625 -1.25,3.09375 -0.84375,1.875 -0.875,3.21875 -2.28125,0.125 -3.5,-2.71875 -1.5625,-3.625 -2.5625,-4.28125 -0.5625,0.25 -0.71875,1.75 -0.15625,1.28125 -1.3125,1.28125 -1.71875,-0.03125 -1.875,-2.15625 -0.15625,-2.15625 -1.65625,-2.15625 -0.03125,-1.15625 -0.40625,-4.5 -0.34375,-2.9375 -0.34375,-4.65625 0,-2.46875 0.5625,-4.40625 0.40625,-0.03125 0.84375,-0.03125 1.9375,0 5.40625,1.625 3.46875,1.59375 5.03125,1.59375 1.21875,0 2.28125,-0.625 -2.4375,-0.59375 -6.53125,-2.875 -4.09375,-2.28125 -6.4375,-2.90625 l 0.5625,0.59375 q -1.4375,-0.125 -1.96875,-1.9375 -0.15625,-0.5625 -0.46875,-3.125 0.46875,-3.625 1,-10.8125 15.34375,-0.96875 16.78125,-0.96875 6.625,0 11.59375,1.25 0.0625,2.84375 0.09375,5.71875 -0.03125,3.46875 -1.0625,5.5 -4.75,-0.3125 -8.875,0.46875 3.0625,1.78125 6.15625,3.5625 3.375,2.28125 4.5625,5.21875 z"
       style=""
       id="path192" />
  </g>
  <g
     aria-label="6"
     transform="translate(404.07314,-0.6799205)"
     style="font-style:normal;font-variant:normal;font-weight:normal;font-stretch:normal;font-size:64px;line-height:125%;font-family:'ROCKY AOE';-inkscape-font-specification:'ROCKY AOE';letter-spacing:0px;word-spacing:0px;fill:#000000;fill-opacity:1;stroke:none;stroke-width:1px;stroke-linecap:butt;stroke-linejoin:miter;stroke-opacity:1"
     id="flowRoot6208-2">
    <path
       d="m 49.283203,67.160295 q 0.25,0.96875 0.25,1.9375 0,2.8125 -3.125,7.71875 -3,4.71875 -2.78125,7.96875 -1.84375,-0.4375 -3.25,-2.5 -0.65625,-0.96875 -2,-3.9375 -2.5,1.21875 -3.78125,5.0625 -1.53125,4.59375 -2.75,5.875 -0.25,0.15625 -0.5,0.15625 -0.25,0 -0.625,-0.21875 -0.5,-0.28125 -0.65625,-0.34375 0,-2.65625 -1.71875,-5.8125 -2.875,-5.34375 -2.9375,-5.5 -3,-1.09375 -3.5,-1.375 -1.8125,-0.96875 -2.25,-2.40625 -2.96875,-4.84375 -3.8125,-8.78125 -0.1875,-0.875 -0.1875,-1.8125 0,-1.84375 1,-5 1.15625,-3.5625 1.3125,-5 0.59375,-1.96875 3.21875,-4 3.71875,-3.5625 9.28125,-4.65625 7.875,-0.3125 15,1.25 1.8125,6.3125 1.6875,8.6875 -1.5625,0.84375 -3.75,0.84375 -0.96875,0 -2.9375,-0.21875 -1.96875,-0.21875 -2.90625,-0.21875 -3.25,0 -5.15625,2.03125 1.25,-0.28125 2.53125,-0.28125 4.03125,0 11.125,4.1875 1.375,0.8125 2.125,2.8125 0.53125,1.75 1.09375,3.53125 z m -12.46875,-0.6875 q -1.28125,-0.78125 -4,0 -0.03125,0.1875 -0.46875,0.625 -0.4375,0.40625 -0.3125,0.71875 0.46875,0.6875 1.625,0.78125 0.9375,0.0625 1.875,0.09375 1.28125,0.21875 1.28125,-2.21875 z"
       style=""
       id="path195" />
  </g>
  <g
     aria-label="7"
     transform="translate(481.90794,0.09842744)"
     style="font-style:normal;font-variant:normal;font-weight:normal;font-stretch:normal;font-size:64px;line-height:125%;font-family:'ROCKY AOE';-inkscape-font-specification:'ROCKY AOE';letter-spacing:0px;word-spacing:0px;fill:#000000;fill-opacity:1;stroke:none;stroke-width:1px;stroke-linecap:butt;stroke-linejoin:miter;stroke-opacity:1"
     id="flowRoot6208-45">
    <path
       d="m 46.689453,47.597795 q -0.3125,1.1875 -0.3125,2.96875 0,0.4375 0.03125,1.3125 0,0.875 0,1.3125 0,3.375 -1.28125,5.21875 -2,2.84375 -4.375,7.25 -1.96875,3.78125 -3.9375,7.59375 -0.9375,3.40625 -1.0625,9.0625 -0.15625,6.84375 -0.5,9.0625 -0.40625,0.71875 -1.4375,0.875 -0.78125,-0.875 -0.875,-2.34375 0,-1.28125 -0.0625,-2.625 -0.0625,-1.3125 -0.84375,-2.03125 -0.28125,1.40625 -0.75,4.28125 -0.875,1.03125 -1.34375,1.03125 -0.1875,0 -0.4375,-0.0625 -1.40625,-1.09375 -1.40625,-3.4375 0,-0.28125 0,-0.875 0.03125,-0.5625 0.03125,-0.84375 0,-2.15625 -1.15625,-3.21875 -0.15625,0.03125 -0.625,0.21875 -0.4375,0.15625 -0.625,0.15625 -0.3125,0 -0.5,-0.28125 -1.59375,-2.21875 -2.15625,-4 2.3125,-5.09375 4.59375,-10.21875 2.40625,-5.875 3.03125,-10.5625 -0.25,-0.09375 -0.5625,-0.09375 -1.1875,0 -2.84375,1.1875 -0.21875,0.1875 -1.21875,2 -0.6875,1.21875 -1.71875,1.5 -1,-1.28125 -4.59375,-2.84375 -0.75,-0.09375 -0.96875,-1.28125 -0.125,-0.96875 -0.28125,-1.9375 0.5,-5.375 0.375,-9.84375 2.03125,-0.53125 3.21875,-0.53125 1.5625,0 2.625,0.75 0.34375,0.0625 5.3125,0.5 3.03125,0.28125 4.84375,1.34375 0.71875,-0.125 2.59375,-0.875 1.65625,-0.65625 2.6875,-0.65625 0.21875,0 0.625,0.0625 0.40625,0.03125 0.59375,0.03125 0.5,0 1.5625,-0.15625 1.0625,-0.1875 1.5625,-0.1875 1.4375,0 2.1875,1.1875 z"
       style=""
       id="path198" />
  </g>
  <g
     aria-label="8"
     transform="translate(563.63447,0.87678014)"
     style="font-style:normal;font-variant:normal;font-weight:normal;font-stretch:normal;font-size:64px;line-height:125%;font-family:'ROCKY AOE';-inkscape-font-specification:'ROCKY AOE';letter-spacing:0px;word-spacing:0px;fill:#000000;fill-opacity:1;stroke:none;stroke-width:1px;stroke-linecap:butt;stroke-linejoin:miter;stroke-opacity:1"
     id="flowRoot6208-0">
    <path
       d="m 48.876953,69.254045 q -2.9375,3.3125 -4.78125,10 -2.25,8.1875 -3.53125,10.5625 -0.03125,0.0625 -0.8125,1.5625 -0.4375,0.875 -1.3125,0.875 -0.78125,-7.21875 -3.21875,-11.40625 -2,3.59375 -2,4.96875 0,0.53125 0.125,1 -0.25,0.34375 -0.5,0.6875 -0.34375,0.46875 -0.71875,0.46875 -0.25,0 -0.53125,-0.1875 0.0625,-1.71875 -1.34375,-4.46875 -1.4375,-2.875 -1.46875,-4.40625 -1.34375,0.75 -2.84375,2.71875 -1.625,2.15625 -2.8125,3.03125 -5.90625,-10.625 -6.84375,-16.6875 1.03125,-6.0625 3.90625,-7.78125 -0.53125,-0.96875 -1.09375,-1.90625 -0.625,-1.15625 -0.5625,-2.09375 -0.25,-2.5625 0.96875,-3.4375 0.0625,-1.65625 1.65625,-2.90625 1.46875,-0.96875 2.9375,-1.96875 2.0625,-0.5625 4.09375,-1.125 2.4375,-0.625 4.21875,-0.625 1.65625,0 3.1875,0.5 1.78125,0.375 3.5625,0.78125 2.0625,0.5625 2.78125,2.125 0.40625,0.59375 2.1875,1.5625 1.40625,0.75 1.53125,1.96875 0.5625,0.21875 0.5625,0.84375 0,0.125 -0.03125,0.40625 -0.03125,0.28125 -0.03125,0.4375 0,0.625 0.46875,0.9375 -0.21875,2.375 -3.53125,5.0625 0.8125,0.3125 1.96875,1.15625 1.15625,0.8125 1.84375,1.09375 0,0.96875 1.03125,2.9375 1.03125,1.96875 0.9375,3.3125 z m -14.34375,-12.375 q 0.28125,-0.53125 0.28125,-0.84375 0,-0.5625 -1.3125,-0.59375 -1.5,0 -1.8125,-0.4375 l 0.21875,-0.09375 q -1.8125,0 -2.25,1.375 -0.28125,1.90625 1.875,1.90625 2.09375,0 3,-1.3125 z m 1.5625,10.8125 q -0.28125,-1.59375 -1.75,-1.59375 -0.375,0 -1.28125,0.15625 -0.90625,0.125 -1.34375,0.125 -0.96875,0 -1.59375,-0.4375 -0.15625,0.375 -0.9375,0.90625 -0.65625,0.46875 -0.65625,0.96875 0,0.15625 0.0625,0.375 1,1 2.90625,1 2.75,0 4.59375,-1.5 z"
       style=""
       id="path201" />
  </g>
  <g
     aria-label="9"
     transform="translate(639.13423,-0.67992051)"
     style="font-style:normal;font-variant:normal;font-weight:normal;font-stretch:normal;font-size:64px;line-height:125%;font-family:'ROCKY AOE';-inkscape-font-specification:'ROCKY AOE';letter-spacing:0px;word-spacing:0px;fill:#000000;fill-opacity:1;stroke:none;stroke-width:1px;stroke-linecap:butt;stroke-linejoin:miter;stroke-opacity:1"
     id="flowRoot6208-05">
    <path
       d="m 48.626953,59.191545 q 0.09375,0.96875 0.09375,1.9375 0,3.59375 -1.46875,7.625 -1,1.1875 -2.78125,5.21875 -1.5,3.34375 -3.4375,4.625 -1.34375,0.90625 -2.75,0.90625 -0.71875,2.34375 -3.5,6.4375 -2.75,4.09375 -3.40625,6.3125 -2.125,-1.34375 -2.5625,-5.78125 -0.53125,-5.03125 -1.84375,-6.6875 -0.40625,-0.28125 -0.75,-0.28125 -0.5,0 -1.28125,1 -0.75,0.96875 -1.46875,0.9375 -1,-1.09375 -2.5625,-4.125 -1.5625,-3.03125 -2.90625,-4.375 -0.03125,-0.53125 -0.03125,-1.125 0,-3.5625 1.21875,-7.34375 0.4375,-0.125 0.90625,-0.125 1.53125,0 3.53125,1.28125 1.625,1.0625 3.25,2.15625 1,-0.625 4.875,-0.71875 3.09375,-0.09375 4.09375,-2.21875 -0.5625,-0.125 -1.25,-0.125 -0.9375,0 -2.78125,0.375 -1.84375,0.375 -2.71875,0.375 -0.34375,0 -0.65625,-0.03125 -1.65625,0.0625 -3.90625,-0.90625 -2.75,-1.15625 -3.6875,-1.34375 -0.125,-0.15625 -2.71875,-3 -1.625,-1.78125 -1.6875,-3.53125 -0.15625,-4.6875 2.25,-7.6875 2.15625,-2.71875 7.8125,-4.78125 2.0625,-0.5 4.28125,-0.5 7.5625,0 12.6875,4.875 0.875,0.5 2.03125,1.875 0.875,1.125 1.75,2.21875 0.84375,0.96875 0.90625,3.28125 0.0625,2.53125 0.46875,3.25 z m -12.78125,-3.78125 -0.59375,-0.5 q -0.4375,0.28125 -0.96875,0.28125 -0.5,0 -1.46875,-0.3125 -0.9375,-0.34375 -1.34375,-0.34375 -0.90625,0 -1.46875,1.0625 0.46875,1.15625 1.9375,1.15625 1.8125,0 3.90625,-1.34375 z"
       style=""
       id="path204" />
  </g>
  <g
     aria-label="10"
     transform="translate(701.40207,0.87677544)"
     style="font-style:normal;font-variant:normal;font-weight:normal;font-stretch:normal;font-size:64px;line-height:125%;font-family:'ROCKY AOE';-inkscape-font-specification:'ROCKY AOE';letter-spacing:0px;word-spacing:0px;fill:#000000;fill-opacity:1;stroke:none;stroke-width:1px;stroke-linecap:butt;stroke-linejoin:miter;stroke-opacity:1"
     id="flowRoot6208-6">
    <path
       d="m 43.564453,47.785295 q -0.71875,3.0625 -0.71875,6.78125 0,2.71875 0.53125,8.21875 0.5625,5.5 0.5625,8.25 0,3.625 -0.65625,6.59375 -0.3125,0.28125 -0.8125,0.28125 -0.21875,0 -0.625,-0.0625 -0.40625,-0.0625 -0.59375,-0.0625 -0.8125,0 -0.8125,1.125 -0.4375,2.21875 -0.875,4.4375 -0.5625,2.59375 -1.75,3.5625 -0.96875,-1.0625 -1.0625,-3.96875 -0.125,-2.8125 -1.375,-4.03125 -0.1875,2.46875 -1.71875,2.46875 -0.375,0 -0.8125,-0.21875 -1.5,-2.875 -1.5,-6.84375 0,-1.5625 0.3125,-4.71875 0.3125,-3.1875 0.3125,-4.78125 0,-2.9375 -0.78125,-5.21875 -0.78125,0.25 -2.21875,1.90625 -1.21875,1.40625 -2.5625,1.3125 -3.15625,-3.25 -5.0625,-9.375 -0.125,-0.3125 -0.125,-0.625 0,-0.9375 1.3125,-1.9375 1.53125,-1.09375 1.71875,-1.625 1.15625,-0.34375 3.03125,-1.625 2.03125,-1.375 3.03125,-1.78125 0.75,-0.5 1.8125,-0.5 0.125,0 2.875,0.40625 1.78125,0.28125 2.90625,-0.28125 0.65625,-0.21875 1.34375,-0.21875 2.78125,0 4.3125,2.53125 z"
       style=""
       id="path207" />
    <path
       d="m 80.314453,60.691545 q -0.15625,2.15625 -1.46875,5.21875 -1.78125,4.28125 -2.03125,5.09375 -1.40625,1.1875 -3.53125,3.8125 -2.28125,3.0625 -3.5,7.03125 -0.21875,0.03125 -0.40625,0.03125 -0.90625,0 -1.75,-1.5625 -0.84375,-1.59375 -1.9375,-1.59375 -0.46875,0.96875 -1.5,4.53125 -0.84375,2.84375 -1.71875,3.9375 -2,-4.78125 -2.125,-5.09375 -1.28125,-3.25 -1.78125,-5.625 -0.8125,-0.3125 -1.40625,-1.28125 -0.6875,-1.125 -1.125,-1.4375 -0.28125,-0.59375 -3.75,-5.125 -2.4375,-3.1875 -2.4375,-5.8125 0,-1.1875 0.4375,-2.4375 0,-2.9375 1.375,-4.6875 0.5625,-1.96875 2.65625,-4.15625 1.75,-1.8125 3.46875,-3.625 0.53125,-0.25 3.28125,-2.15625 1.90625,-1.3125 3.5625,-1.25 3.1875,-0.8125 4.96875,0.375 1.46875,0.78125 4.28125,2.15625 0.84375,1 2.625,2.8125 2.75,3.9375 3.8125,10.84375 z m -11.5,1.34375 q -0.15625,-1 -1.1875,-2 -1.125,-1.09375 -1.34375,-1.78125 -0.28125,-0.25 -0.96875,-1.875 -1.46875,0.6875 -3.4375,4.59375 0.9375,5.3125 3.71875,6.25 0.09375,-1.03125 1.46875,-2.53125 1.46875,-1.625 1.75,-2.65625 z"
       style=""
       id="path209" />
  </g>
  <g
     aria-label="11"
     transform="translate(780.79356,1.6551258)"
     style="font-style:normal;font-variant:normal;font-weight:normal;font-stretch:normal;font-size:64px;line-height:125%;font-family:'ROCKY AOE';-inkscape-font-specification:'ROCKY AOE';letter-spacing:0px;word-spacing:0px;fill:#000000;fill-opacity:1;stroke:none;stroke-width:1px;stroke-linecap:butt;stroke-linejoin:miter;stroke-opacity:1"
     id="flowRoot6208-37">
    <path
       d="m 43.564453,47.785295 q -0.71875,3.0625 -0.71875,6.78125 0,2.71875 0.53125,8.21875 0.5625,5.5 0.5625,8.25 0,3.625 -0.65625,6.59375 -0.3125,0.28125 -0.8125,0.28125 -0.21875,0 -0.625,-0.0625 -0.40625,-0.0625 -0.59375,-0.0625 -0.8125,0 -0.8125,1.125 -0.4375,2.21875 -0.875,4.4375 -0.5625,2.59375 -1.75,3.5625 -0.96875,-1.0625 -1.0625,-3.96875 -0.125,-2.8125 -1.375,-4.03125 -0.1875,2.46875 -1.71875,2.46875 -0.375,0 -0.8125,-0.21875 -1.5,-2.875 -1.5,-6.84375 0,-1.5625 0.3125,-4.71875 0.3125,-3.1875 0.3125,-4.78125 0,-2.9375 -0.78125,-5.21875 -0.78125,0.25 -2.21875,1.90625 -1.21875,1.40625 -2.5625,1.3125 -3.15625,-3.25 -5.0625,-9.375 -0.125,-0.3125 -0.125,-0.625 0,-0.9375 1.3125,-1.9375 1.53125,-1.09375 1.71875,-1.625 1.15625,-0.34375 3.03125,-1.625 2.03125,-1.375 3.03125,-1.78125 0.75,-0.5 1.8125,-0.5 0.125,0 2.875,0.40625 1.78125,0.28125 2.90625,-0.28125 0.65625,-0.21875 1.34375,-0.21875 2.78125,0 4.3125,2.53125 z"
       style=""
       id="path212" />
    <path
       d="m 76.064453,47.785295 q -0.71875,3.0625 -0.71875,6.78125 0,2.71875 0.53125,8.21875 0.5625,5.5 0.5625,8.25 0,3.625 -0.65625,6.59375 -0.3125,0.28125 -0.8125,0.28125 -0.21875,0 -0.625,-0.0625 -0.40625,-0.0625 -0.59375,-0.0625 -0.8125,0 -0.8125,1.125 -0.4375,2.21875 -0.875,4.4375 -0.5625,2.59375 -1.75,3.5625 -0.96875,-1.0625 -1.0625,-3.96875 -0.125,-2.8125 -1.375,-4.03125 -0.1875,2.46875 -1.71875,2.46875 -0.375,0 -0.8125,-0.21875 -1.5,-2.875 -1.5,-6.84375 0,-1.5625 0.3125,-4.71875 0.3125,-3.1875 0.3125,-4.78125 0,-2.9375 -0.78125,-5.21875 -0.78125,0.25 -2.21875,1.90625 -1.21875,1.40625 -2.5625,1.3125 -3.15625,-3.25 -5.0625,-9.375 -0.125,-0.3125 -0.125,-0.625 0,-0.9375 1.3125,-1.9375 1.53125,-1.09375 1.71875,-1.625 1.15625,-0.34375 3.03125,-1.625 2.03125,-1.375 3.03125,-1.78125 0.75,-0.5 1.8125,-0.5 0.125,0 2.875,0.40625 1.78125,0.28125 2.90625,-0.28125 0.65625,-0.21875 1.34375,-0.21875 2.78125,0 4.3125,2.53125 z"
       style=""
       id="path214" />
  </g>
  <g
     aria-label="?"
     transform="translate(877.30871,1.6551234)"
     style="font-style:normal;font-variant:normal;font-weight:normal;font-stretch:normal;font-size:64px;line-height:125%;font-family:'ROCKY AOE';-inkscape-font-specification:'ROCKY AOE';letter-spacing:0px;word-spacing:0px;fill:#000000;fill-opacity:1;stroke:none;stroke-width:1px;stroke-linecap:butt;stroke-linejoin:miter;stroke-opacity:1"
     id="flowRoot6208-34">
    <path
       d="m 43.845703,49.441545 q 0.71875,2.46875 0.71875,4.28125 0,3.4375 -2.46875,5 -3.125,0.71875 -5.875,4 -3.375,4.03125 -4.9375,4.96875 -0.0625,0.21875 -0.0625,0.40625 0,0.90625 1.90625,1.8125 1.90625,0.90625 1.75,2.25 -0.375,5.03125 -0.75,10.0625 -0.6875,5.8125 -2.84375,8.78125 -0.84375,-2 -1.21875,-5.1875 -0.3125,-2.6875 -0.625,-5.34375 -0.59375,0.4375 -0.96875,1.9375 -0.34375,1.5 -1,2.0625 -1.9375,-0.8125 -2.96875,-4.09375 -1.46875,-4.65625 -1.90625,-5.375 -0.34375,-0.5625 -0.34375,-1.25 0,-1.21875 1.4375,-3.4375 0.96875,-0.4375 1.9375,-0.875 1.1875,-0.5 2.15625,-0.5 0,-0.1875 0.21875,-0.625 0.21875,-0.4375 0.21875,-0.625 0,-0.34375 -0.4375,-0.5 -0.125,-0.03125 -3.21875,0 -1.9375,0 -2.15625,-1.75 0.15625,-2.6875 3.53125,-5.59375 3.78125,-3.25 4.46875,-5.21875 -2.5625,-0.0625 -4.9375,2.9375 -2.625,3.28125 -3.84375,3.59375 -0.59375,-0.59375 -1.84375,-3.25 -1,-2.1875 -2.53125,-2.90625 -1.21875,-3.09375 -0.6875,-5.34375 3,-1.6875 6,-3.375 3.53125,-1.84375 6.5625,-1.90625 0.625,0.0625 4.3125,0.15625 2.625,0.0625 4.1875,0.53125 1.6875,0.8125 3.40625,1.65625 2,1 2.8125,2.71875 z"
       style=""
       id="path217" />
  </g>
</svg>
